<svg width="21" height="16" viewBox="0 0 21 16" fill="none" xmlns="http://www.w3.org/2000/svg">
<path fill-rule="evenodd" clip-rule="evenodd" d="M3.0036 7.43028C2.90767 7.59411 2.82801 7.7401 2.76409 7.86272C2.82801 7.98535 2.90767 8.13134 3.0036 8.29517C3.31518 8.8273 3.79237 9.53749 4.45059 10.2453C5.76256 11.6561 7.76125 13.029 10.6197 13.029C13.4781 13.029 15.4768 11.6561 16.7887 10.2453C17.447 9.53749 17.9242 8.8273 18.2357 8.29517C18.3317 8.13134 18.4113 7.98535 18.4752 7.86272C18.4113 7.7401 18.3317 7.59411 18.2357 7.43028C17.9242 6.89815 17.447 6.18796 16.7887 5.48016C15.4768 4.06937 13.4781 2.69641 10.6197 2.69641C7.76125 2.69641 5.76256 4.06937 4.45059 5.48016C3.79237 6.18796 3.31518 6.89815 3.0036 7.43028ZM20.5035 8.27066C20.5037 8.27019 20.5039 8.26975 19.588 7.86273L20.5039 8.26975C20.6113 8.00983 20.6113 7.71562 20.5039 7.4557L19.588 7.86273C20.5039 7.4557 20.5037 7.45526 20.5035 7.45479L20.5031 7.45374L20.502 7.4512L20.4992 7.44442L20.4905 7.42418C20.4835 7.40777 20.4738 7.38558 20.4614 7.35798C20.4367 7.3028 20.4013 7.22594 20.3548 7.13049C20.2619 6.93974 20.1243 6.67383 19.9393 6.3578C19.5702 5.72751 19.0065 4.8878 18.2234 4.04571C16.6527 2.35671 14.1672 0.629883 10.6197 0.629883C7.07214 0.629883 4.58668 2.35671 3.01597 4.04571C2.23287 4.8878 1.66909 5.72751 1.30004 6.3578C1.115 6.67383 0.977433 6.93974 0.884514 7.13049C0.838017 7.22594 0.802587 7.3028 0.777881 7.35798C0.765524 7.38558 0.75584 7.40777 0.748784 7.42418L0.740163 7.44442L0.737319 7.4512L0.736262 7.45374L0.735824 7.45479C0.735631 7.45526 0.735447 7.4557 1.65132 7.86271L0.735447 7.4557C0.62802 7.71562 0.62802 8.00983 0.735447 8.26975L1.65132 7.86274C0.735447 8.26975 0.735631 8.27019 0.735824 8.27066L0.736262 8.27171L0.737319 8.27425L0.740163 8.28103L0.748784 8.30127C0.75584 8.31768 0.765524 8.33987 0.777881 8.36747C0.802587 8.42265 0.838017 8.49951 0.884514 8.59496C0.977433 8.78572 1.115 9.05162 1.30004 9.36765C1.66909 9.99794 2.23287 10.8376 3.01597 11.6797C4.58668 13.3687 7.07214 15.0956 10.6197 15.0956C14.1672 15.0956 16.6527 13.3687 18.2234 11.6797C19.0065 10.8376 19.5702 9.99794 19.9393 9.36765C20.1243 9.05162 20.2619 8.78572 20.3548 8.59496C20.4013 8.49951 20.4367 8.42265 20.4614 8.36747C20.4738 8.33987 20.4835 8.31768 20.4905 8.30127L20.4992 8.28103L20.502 8.27425L20.5031 8.27171L20.5035 8.27066ZM10.6197 9.92925C9.51898 9.92925 8.62671 9.00404 8.62671 7.86273C8.62671 6.72141 9.51898 5.7962 10.6197 5.7962C11.7203 5.7962 12.6126 6.72141 12.6126 7.86273C12.6126 9.00404 11.7203 9.92925 10.6197 9.92925ZM6.63375 7.86273C6.63375 5.5801 8.4183 3.72967 10.6197 3.72967C12.821 3.72967 14.6056 5.5801 14.6056 7.86273C14.6056 10.1453 12.821 11.9958 10.6197 11.9958C8.4183 11.9958 6.63375 10.1453 6.63375 7.86273Z" fill="black"/>
</svg>
